<svg xmlns="http://www.w3.org/2000/svg" xmlns:xlink="http://www.w3.org/1999/xlink" width="2245" zoomAndPan="magnify" viewBox="0 0 1683.75 1190.250009" height="1587" preserveAspectRatio="xMidYMid meet" version="1.0"><defs><g/><clipPath id="43967e1012"><path d="M 0.40625 0 L 1683.09375 0 L 1683.09375 1189.5 L 0.40625 1189.5 Z M 0.40625 0 " clip-rule="nonzero"/></clipPath><clipPath id="bcd561ad9b"><path d="M 0.40625 0 L 1682.667969 0 L 1682.667969 1189.199219 L 0.40625 1189.199219 Z M 0.40625 0 " clip-rule="nonzero"/></clipPath><clipPath id="aa064e72ee"><rect x="0" width="1357" y="0" height="534"/></clipPath><clipPath id="baa1016a29"><rect x="0" width="1684" y="0" height="1190"/></clipPath></defs><g clip-path="url(#43967e1012)"><path fill="#ffffff" d="M 0.40625 0 L 1683.09375 0 L 1683.09375 1189.5 L 0.40625 1189.5 Z M 0.40625 0 " fill-opacity="1" fill-rule="nonzero"/><g transform="matrix(1, 0, 0, 1, 0, 0.00000000000002896)"><g clip-path="url(#baa1016a29)"><g clip-path="url(#bcd561ad9b)"><path fill="#ffffff" d="M 0.40625 0 L 1682.667969 0 L 1682.667969 1189.199219 L 0.40625 1189.199219 Z M 0.40625 0 " fill-opacity="1" fill-rule="nonzero"/></g><g transform="matrix(1, 0, 0, 1, 158, 313)"><g clip-path="url(#aa064e72ee)"><g fill="#000000" fill-opacity="1"><g transform="translate(1.378227, 444.763509)"><g><path d="M 121.109375 3.640625 C 101.710938 3.640625 82.675781 0.304688 64 -6.359375 C 45.332031 -13.023438 28.363281 -23.269531 13.09375 -37.09375 L 46.1875 -76.734375 C 57.820312 -67.273438 69.757812 -59.757812 82 -54.1875 C 94.25 -48.613281 107.648438 -45.828125 122.203125 -45.828125 C 133.835938 -45.828125 142.867188 -47.945312 149.296875 -52.1875 C 155.722656 -56.425781 158.9375 -62.304688 158.9375 -69.828125 L 158.9375 -70.5625 C 158.9375 -74.195312 158.269531 -77.40625 156.9375 -80.1875 C 155.601562 -82.976562 153.054688 -85.585938 149.296875 -88.015625 C 145.535156 -90.441406 140.320312 -92.863281 133.65625 -95.28125 C 126.988281 -97.707031 118.320312 -100.253906 107.65625 -102.921875 C 94.800781 -106.078125 83.160156 -109.59375 72.734375 -113.46875 C 62.304688 -117.351562 53.457031 -122.144531 46.1875 -127.84375 C 38.914062 -133.539062 33.28125 -140.628906 29.28125 -149.109375 C 25.28125 -157.597656 23.28125 -168.144531 23.28125 -180.75 L 23.28125 -181.484375 C 23.28125 -193.117188 25.460938 -203.601562 29.828125 -212.9375 C 34.191406 -222.269531 40.3125 -230.332031 48.1875 -237.125 C 56.070312 -243.914062 65.46875 -249.128906 76.375 -252.765625 C 87.28125 -256.398438 99.28125 -258.21875 112.375 -258.21875 C 131.050781 -258.21875 148.207031 -255.425781 163.84375 -249.84375 C 179.476562 -244.269531 193.84375 -236.269531 206.9375 -225.84375 L 177.84375 -183.65625 C 166.445312 -191.414062 155.289062 -197.535156 144.375 -202.015625 C 133.46875 -206.503906 122.5625 -208.75 111.65625 -208.75 C 100.738281 -208.75 92.550781 -206.628906 87.09375 -202.390625 C 81.644531 -198.148438 78.921875 -192.878906 78.921875 -186.578125 L 78.921875 -185.84375 C 78.921875 -181.71875 79.707031 -178.140625 81.28125 -175.109375 C 82.851562 -172.078125 85.703125 -169.347656 89.828125 -166.921875 C 93.953125 -164.503906 99.585938 -162.203125 106.734375 -160.015625 C 113.890625 -157.835938 122.925781 -155.296875 133.84375 -152.390625 C 146.6875 -148.992188 158.140625 -145.171875 168.203125 -140.921875 C 178.265625 -136.679688 186.75 -131.59375 193.65625 -125.65625 C 200.570312 -119.71875 205.785156 -112.742188 209.296875 -104.734375 C 212.816406 -96.734375 214.578125 -87.160156 214.578125 -76.015625 L 214.578125 -75.28125 C 214.578125 -62.675781 212.269531 -51.460938 207.65625 -41.640625 C 203.050781 -31.816406 196.628906 -23.570312 188.390625 -16.90625 C 180.148438 -10.238281 170.332031 -5.144531 158.9375 -1.625 C 147.539062 1.882812 134.929688 3.640625 121.109375 3.640625 Z M 121.109375 3.640625 "/></g></g></g><g fill="#000000" fill-opacity="1"><g transform="translate(216.673901, 444.763509)"><g><path d="M 24.734375 -194.9375 L 80.015625 -194.9375 L 80.015625 -166.9375 C 86.796875 -176.144531 94.972656 -183.71875 104.546875 -189.65625 C 114.128906 -195.601562 126.195312 -198.578125 140.75 -198.578125 C 152.144531 -198.578125 163.175781 -196.394531 173.84375 -192.03125 C 184.507812 -187.664062 193.960938 -181.175781 202.203125 -172.5625 C 210.453125 -163.957031 217.0625 -153.410156 222.03125 -140.921875 C 227 -128.441406 229.484375 -114.078125 229.484375 -97.828125 L 229.484375 -97.109375 C 229.484375 -80.859375 227 -66.488281 222.03125 -54 C 217.0625 -41.519531 210.515625 -30.972656 202.390625 -22.359375 C 194.265625 -13.753906 184.867188 -7.269531 174.203125 -2.90625 C 163.535156 1.457031 152.382812 3.640625 140.75 3.640625 C 125.957031 3.640625 113.769531 0.734375 104.1875 -5.078125 C 94.613281 -10.898438 86.554688 -17.691406 80.015625 -25.453125 L 80.015625 58.1875 L 24.734375 58.1875 Z M 126.5625 -43.28125 C 133.113281 -43.28125 139.234375 -44.550781 144.921875 -47.09375 C 150.617188 -49.644531 155.648438 -53.28125 160.015625 -58 C 164.378906 -62.726562 167.832031 -68.363281 170.375 -74.90625 C 172.925781 -81.457031 174.203125 -88.859375 174.203125 -97.109375 L 174.203125 -97.828125 C 174.203125 -105.828125 172.925781 -113.160156 170.375 -119.828125 C 167.832031 -126.503906 164.378906 -132.203125 160.015625 -136.921875 C 155.648438 -141.648438 150.617188 -145.285156 144.921875 -147.828125 C 139.234375 -150.378906 133.113281 -151.65625 126.5625 -151.65625 C 120.019531 -151.65625 113.898438 -150.378906 108.203125 -147.828125 C 102.503906 -145.285156 97.53125 -141.648438 93.28125 -136.921875 C 89.039062 -132.203125 85.644531 -126.503906 83.09375 -119.828125 C 80.550781 -113.160156 79.28125 -105.828125 79.28125 -97.828125 L 79.28125 -97.109375 C 79.28125 -89.109375 80.550781 -81.769531 83.09375 -75.09375 C 85.644531 -68.425781 89.039062 -62.726562 93.28125 -58 C 97.53125 -53.28125 102.503906 -49.644531 108.203125 -47.09375 C 113.898438 -44.550781 120.019531 -43.28125 126.5625 -43.28125 Z M 126.5625 -43.28125 "/></g></g></g><g fill="#af8bfa" fill-opacity="1"><g transform="translate(444.710084, 444.763509)"><g><path d="M 117.109375 4.359375 C 102.554688 4.359375 89.035156 1.9375 76.546875 -2.90625 C 64.066406 -7.757812 53.28125 -14.671875 44.1875 -23.640625 C 35.09375 -32.609375 28 -43.210938 22.90625 -55.453125 C 17.820312 -67.703125 15.28125 -81.34375 15.28125 -96.375 L 15.28125 -97.109375 C 15.28125 -110.921875 17.640625 -124.007812 22.359375 -136.375 C 27.085938 -148.75 33.695312 -159.539062 42.1875 -168.75 C 50.675781 -177.96875 60.796875 -185.242188 72.546875 -190.578125 C 84.304688 -195.910156 97.34375 -198.578125 111.65625 -198.578125 C 127.894531 -198.578125 141.953125 -195.664062 153.828125 -189.84375 C 165.710938 -184.019531 175.59375 -176.195312 183.46875 -166.375 C 191.351562 -156.5625 197.175781 -145.289062 200.9375 -132.5625 C 204.695312 -119.832031 206.578125 -106.554688 206.578125 -92.734375 C 206.578125 -90.554688 206.515625 -88.253906 206.390625 -85.828125 C 206.265625 -83.398438 206.082031 -80.851562 205.84375 -78.1875 L 70.1875 -78.1875 C 72.851562 -65.582031 78.367188 -56.066406 86.734375 -49.640625 C 95.097656 -43.210938 105.460938 -40 117.828125 -40 C 127.046875 -40 135.289062 -41.578125 142.5625 -44.734375 C 149.832031 -47.890625 157.347656 -52.984375 165.109375 -60.015625 L 196.75 -32 C 187.539062 -20.601562 176.390625 -11.691406 163.296875 -5.265625 C 150.203125 1.148438 134.804688 4.359375 117.109375 4.359375 Z M 152.75 -112.75 C 151.050781 -125.113281 146.6875 -135.113281 139.65625 -142.75 C 132.625 -150.382812 123.289062 -154.203125 111.65625 -154.203125 C 100.007812 -154.203125 90.609375 -150.441406 83.453125 -142.921875 C 76.304688 -135.410156 71.644531 -125.351562 69.46875 -112.75 Z M 152.75 -112.75 "/></g></g></g><g fill="#af8bfa" fill-opacity="1"><g transform="translate(650.186505, 444.763509)"><g><path d="M 117.109375 4.359375 C 102.554688 4.359375 89.035156 1.9375 76.546875 -2.90625 C 64.066406 -7.757812 53.28125 -14.671875 44.1875 -23.640625 C 35.09375 -32.609375 28 -43.210938 22.90625 -55.453125 C 17.820312 -67.703125 15.28125 -81.34375 15.28125 -96.375 L 15.28125 -97.109375 C 15.28125 -110.921875 17.640625 -124.007812 22.359375 -136.375 C 27.085938 -148.75 33.695312 -159.539062 42.1875 -168.75 C 50.675781 -177.96875 60.796875 -185.242188 72.546875 -190.578125 C 84.304688 -195.910156 97.34375 -198.578125 111.65625 -198.578125 C 127.894531 -198.578125 141.953125 -195.664062 153.828125 -189.84375 C 165.710938 -184.019531 175.59375 -176.195312 183.46875 -166.375 C 191.351562 -156.5625 197.175781 -145.289062 200.9375 -132.5625 C 204.695312 -119.832031 206.578125 -106.554688 206.578125 -92.734375 C 206.578125 -90.554688 206.515625 -88.253906 206.390625 -85.828125 C 206.265625 -83.398438 206.082031 -80.851562 205.84375 -78.1875 L 70.1875 -78.1875 C 72.851562 -65.582031 78.367188 -56.066406 86.734375 -49.640625 C 95.097656 -43.210938 105.460938 -40 117.828125 -40 C 127.046875 -40 135.289062 -41.578125 142.5625 -44.734375 C 149.832031 -47.890625 157.347656 -52.984375 165.109375 -60.015625 L 196.75 -32 C 187.539062 -20.601562 176.390625 -11.691406 163.296875 -5.265625 C 150.203125 1.148438 134.804688 4.359375 117.109375 4.359375 Z M 152.75 -112.75 C 151.050781 -125.113281 146.6875 -135.113281 139.65625 -142.75 C 132.625 -150.382812 123.289062 -154.203125 111.65625 -154.203125 C 100.007812 -154.203125 90.609375 -150.441406 83.453125 -142.921875 C 76.304688 -135.410156 71.644531 -125.351562 69.46875 -112.75 Z M 152.75 -112.75 "/></g></g></g><g fill="#000000" fill-opacity="1"><g transform="translate(855.664153, 444.763509)"><g><path d="M 27.28125 -265.484375 L 82.5625 -265.484375 L 82.5625 0 L 27.28125 0 Z M 27.28125 -265.484375 "/></g></g></g><g fill="#000000" fill-opacity="1"><g transform="translate(948.037386, 444.763509)"><g><path d="M 80.015625 3.640625 C 70.796875 3.640625 62.125 2.367188 54 -0.171875 C 45.882812 -2.722656 38.796875 -6.546875 32.734375 -11.640625 C 26.671875 -16.734375 21.878906 -22.972656 18.359375 -30.359375 C 14.847656 -37.753906 13.09375 -46.304688 13.09375 -56.015625 L 13.09375 -56.734375 C 13.09375 -67.398438 15.03125 -76.613281 18.90625 -84.375 C 22.789062 -92.132812 28.1875 -98.554688 35.09375 -103.640625 C 42.007812 -108.734375 50.253906 -112.550781 59.828125 -115.09375 C 69.398438 -117.644531 80.007812 -118.921875 91.65625 -118.921875 C 101.59375 -118.921875 110.257812 -118.191406 117.65625 -116.734375 C 125.050781 -115.285156 132.265625 -113.347656 139.296875 -110.921875 L 139.296875 -114.203125 C 139.296875 -125.835938 135.78125 -134.6875 128.75 -140.75 C 121.71875 -146.8125 111.289062 -149.84375 97.46875 -149.84375 C 86.800781 -149.84375 77.40625 -148.929688 69.28125 -147.109375 C 61.15625 -145.296875 52.609375 -142.691406 43.640625 -139.296875 L 29.828125 -181.484375 C 40.492188 -186.085938 51.644531 -189.84375 63.28125 -192.75 C 74.914062 -195.664062 88.976562 -197.125 105.46875 -197.125 C 120.738281 -197.125 133.769531 -195.242188 144.5625 -191.484375 C 155.351562 -187.722656 164.265625 -182.328125 171.296875 -175.296875 C 178.566406 -168.023438 183.898438 -159.113281 187.296875 -148.5625 C 190.691406 -138.019531 192.390625 -126.203125 192.390625 -113.109375 L 192.390625 0 L 138.921875 0 L 138.921875 -21.09375 C 132.140625 -13.570312 124.019531 -7.566406 114.5625 -3.078125 C 105.101562 1.398438 93.585938 3.640625 80.015625 3.640625 Z M 96.734375 -34.546875 C 109.828125 -34.546875 120.3125 -37.695312 128.1875 -44 C 136.070312 -50.3125 140.015625 -58.554688 140.015625 -68.734375 L 140.015625 -78.5625 C 135.171875 -80.738281 129.773438 -82.492188 123.828125 -83.828125 C 117.890625 -85.160156 111.523438 -85.828125 104.734375 -85.828125 C 92.859375 -85.828125 83.523438 -83.523438 76.734375 -78.921875 C 69.953125 -74.316406 66.5625 -67.648438 66.5625 -58.921875 L 66.5625 -58.1875 C 66.5625 -50.675781 69.347656 -44.859375 74.921875 -40.734375 C 80.492188 -36.609375 87.765625 -34.546875 96.734375 -34.546875 Z M 96.734375 -34.546875 "/></g></g></g><g fill="#000000" fill-opacity="1"><g transform="translate(1145.876624, 444.763509)"><g><path d="M 24.734375 -194.9375 L 80.015625 -194.9375 L 80.015625 -167.296875 C 83.160156 -171.421875 86.613281 -175.359375 90.375 -179.109375 C 94.132812 -182.867188 98.316406 -186.203125 102.921875 -189.109375 C 107.523438 -192.023438 112.613281 -194.332031 118.1875 -196.03125 C 123.769531 -197.726562 130.078125 -198.578125 137.109375 -198.578125 C 158.203125 -198.578125 174.503906 -192.148438 186.015625 -179.296875 C 197.535156 -166.441406 203.296875 -148.742188 203.296875 -126.203125 L 203.296875 0 L 148.015625 0 L 148.015625 -108.75 C 148.015625 -121.832031 145.101562 -131.707031 139.28125 -138.375 C 133.46875 -145.050781 125.226562 -148.390625 114.5625 -148.390625 C 103.894531 -148.390625 95.46875 -145.050781 89.28125 -138.375 C 83.101562 -131.707031 80.015625 -121.832031 80.015625 -108.75 L 80.015625 0 L 24.734375 0 Z M 24.734375 -194.9375 "/></g></g></g><path stroke-linecap="butt" transform="matrix(1.499405, 0, 0, 1.499405, 443.854055, 365.184339)" fill="none" stroke-linejoin="miter" d="M 2.999528 2.000297 L 291.772954 2.000297 " stroke="#af8bfa" stroke-width="4" stroke-opacity="1" stroke-miterlimit="4"/><path stroke-linecap="round" transform="matrix(1.499405, 0, 0, 1.499405, 443.854055, 365.184339)" fill="none" stroke-linejoin="round" d="M 1.999131 -3.999479 L 1.999131 8.000073 " stroke="#af8bfa" stroke-width="4" stroke-opacity="1" stroke-miterlimit="4"/><path stroke-linecap="round" transform="matrix(1.499405, 0, 0, 1.499405, 443.854055, 365.184339)" fill="none" stroke-linejoin="round" d="M 292.773351 -3.999479 L 292.773351 8.000073 " stroke="#af8bfa" stroke-width="4" stroke-opacity="1" stroke-miterlimit="4"/><g fill="#000000" fill-opacity="1"><g transform="translate(547.343921, 51.821666)"><g><path d="M 160.390625 11.28125 C 163.054688 36.976562 175.054688 48.859375 196.390625 46.921875 L 196.390625 24.359375 L 254.578125 24.359375 L 254.578125 83.28125 L 205.484375 83.28125 C 181.484375 83.28125 164.207031 77.460938 153.65625 65.828125 C 143.113281 54.191406 137.71875 37.582031 137.46875 16 Z M 160.390625 11.28125 "/></g></g></g><g fill="#000000" fill-opacity="1"><g transform="translate(547.343921, 138.376093)"><g><path d="M 160.390625 11.28125 C 163.054688 36.976562 175.054688 48.859375 196.390625 46.921875 L 196.390625 24.359375 L 254.578125 24.359375 L 254.578125 83.28125 L 205.484375 83.28125 C 181.484375 83.28125 164.207031 77.460938 153.65625 65.828125 C 143.113281 54.191406 137.71875 37.582031 137.46875 16 Z M 160.390625 11.28125 "/></g></g></g><path stroke-linecap="butt" transform="matrix(1.499405, 0, 0, 1.499405, 443.854055, 331.053541)" fill="none" stroke-linejoin="miter" d="M 2.999528 1.998953 L 291.772954 1.998953 " stroke="#af8bfa" stroke-width="4" stroke-opacity="1" stroke-miterlimit="4"/><path stroke-linecap="round" transform="matrix(1.499405, 0, 0, 1.499405, 443.854055, 331.053541)" fill="none" stroke-linejoin="round" d="M 1.999131 -4.000823 L 1.999131 7.998729 " stroke="#af8bfa" stroke-width="4" stroke-opacity="1" stroke-miterlimit="4"/><path stroke-linecap="round" transform="matrix(1.499405, 0, 0, 1.499405, 443.854055, 331.053541)" fill="none" stroke-linejoin="round" d="M 292.773351 -4.000823 L 292.773351 7.998729 " stroke="#af8bfa" stroke-width="4" stroke-opacity="1" stroke-miterlimit="4"/><g fill="#af8bf9" fill-opacity="1"><g transform="translate(776.333813, 173.733478)"><g><path d="M -160.390625 -11.28125 C -163.054688 -36.976562 -175.054688 -48.859375 -196.390625 -46.921875 L -196.390625 -24.359375 L -254.578125 -24.359375 L -254.578125 -83.28125 L -205.484375 -83.28125 C -181.484375 -83.28125 -164.207031 -77.460938 -153.65625 -65.828125 C -143.113281 -54.191406 -137.71875 -37.582031 -137.46875 -16 Z M -160.390625 -11.28125 "/></g></g></g><g fill="#000000" fill-opacity="1"><g transform="translate(776.333813, 87.166261)"><g><path d="M -160.390625 -11.28125 C -163.054688 -36.976562 -175.054688 -48.859375 -196.390625 -46.921875 L -196.390625 -24.359375 L -254.578125 -24.359375 L -254.578125 -83.28125 L -205.484375 -83.28125 C -181.484375 -83.28125 -164.207031 -77.460938 -153.65625 -65.828125 C -143.113281 -54.191406 -137.71875 -37.582031 -137.46875 -16 Z M -160.390625 -11.28125 "/></g></g></g></g></g></g></g></g></svg>